<svg xmlns="http://www.w3.org/2000/svg" viewBox="0 0 500 500"><g id="freepik--Shadows--inject-16"><path id="freepik--Shadow--inject-16" d="M456.28,387,200.64,239.44a17.07,17.07,0,0,0-15.41,0L40.82,322.62c-5.75,3.32-5.76,8.75,0,12.07l253.81,146.5a15.09,15.09,0,0,0,13.59,0l148.07-85.29C460.52,393.45,460.52,389.44,456.28,387Z" style="fill:#ebebeb"></path></g><g id="freepik--paper-planes--inject-16"><g id="freepik--paper-plane--inject-16"><polygon points="179.29 449.64 112.68 435.59 91.93 452.11 179.29 449.64" style="fill:#B38D22"></polygon><g style="opacity:0.15"><polygon points="179.29 449.64 112.68 435.59 91.93 452.11 179.29 449.64" style="fill:#fff"></polygon></g><polygon points="179.29 449.64 118.33 428.52 124.13 412.74 179.29 449.64" style="fill:#B38D22"></polygon><g style="opacity:0.15"><polygon points="179.29 449.64 118.33 428.52 124.13 412.74 179.29 449.64" style="fill:#fff"></polygon></g><polygon points="118.33 428.52 121.72 437.49 179.29 449.64 118.33 428.52" style="fill:#B38D22"></polygon><g style="opacity:0.2"><polygon points="118.33 428.52 121.72 437.49 179.29 449.64 118.33 428.52"></polygon></g><path d="M110.84,429.76a.59.59,0,0,0,.35-.24.72.72,0,0,0-.12-.94l-1.44-1.26a.56.56,0,0,0-.85.08.73.73,0,0,0,.11.94l1.46,1.28A.6.6,0,0,0,110.84,429.76Z" style="fill:#455a64"></path><path d="M104.26,424c-.91-.9-1.8-1.82-2.67-2.74a.72.72,0,0,1,0-.94.58.58,0,0,1,.86,0c.86.92,1.75,1.82,2.64,2.71a.72.72,0,0,1,.07.95.57.57,0,0,1-.86,0Zm-6.93-7.53c-.83-1-1.64-2-2.43-3a.71.71,0,0,1,0-.94.58.58,0,0,1,.86.09c.78,1,1.57,2,2.39,3a.73.73,0,0,1,0,.95.54.54,0,0,1-.29.15A.57.57,0,0,1,97.33,416.46Zm-6.22-8.26c-.73-1.09-1.44-2.19-2.12-3.29a.69.69,0,0,1,.16-.92.58.58,0,0,1,.84.2c.66,1.09,1.36,2.17,2.08,3.24a.7.7,0,0,1-.12.93.45.45,0,0,1-.23.11A.59.59,0,0,1,91.11,408.2Zm-5.33-9c-.6-1.17-1.19-2.36-1.73-3.54a.68.68,0,0,1,.26-.88.6.6,0,0,1,.82.32c.53,1.15,1.1,2.32,1.7,3.48a.68.68,0,0,1-.22.9l-.18.07A.62.62,0,0,1,85.78,399.22Zm-4.25-9.62c-.45-1.22-.88-2.49-1.28-3.74a.66.66,0,0,1,.37-.84.63.63,0,0,1,.77.44c.39,1.24.82,2.48,1.26,3.68a.67.67,0,0,1-.33.86l-.1,0A.64.64,0,0,1,81.53,389.6Zm-3-10.12c-.23-1-.45-2-.65-3l-.16-.84a.64.64,0,0,1,.47-.77h0a.65.65,0,0,1,.72.55l.15.83c.2,1,.41,2,.64,3a.64.64,0,0,1-.43.79h0A.64.64,0,0,1,78.5,379.48Zm-1.09-9.81a.66.66,0,0,1-.67-.61c-.14-1.31-.26-2.64-.34-3.95a.62.62,0,0,1,.56-.69.66.66,0,0,1,.65.65c.08,1.29.19,2.6.33,3.88a.63.63,0,0,1-.47.71Zm-.59-10.45a.67.67,0,0,1-.59-.7c0-1.31.06-2.64.15-3.95A.6.6,0,0,1,77,354a.69.69,0,0,1,.56.74c-.09,1.28-.14,2.58-.15,3.87a.62.62,0,0,1-.48.62Zm.77-10.37a.69.69,0,0,1-.49-.79c.2-1.28.44-2.58.71-3.85a.58.58,0,0,1,.72-.47.71.71,0,0,1,.46.82c-.27,1.25-.5,2.52-.7,3.78a.56.56,0,0,1-.7.51Zm2.24-10.05a.71.71,0,0,1-.38-.86c.39-1.23.81-2.46,1.26-3.65a.57.57,0,0,1,.79-.34.73.73,0,0,1,.33.89c-.44,1.17-.86,2.37-1.23,3.58a.61.61,0,0,1-.45.42A.52.52,0,0,1,79.83,338.8Z" style="fill:#455a64"></path></g><g id="freepik--paper-plane--inject-16"><polygon points="446.27 233.74 409.36 196.81 430.94 238.18 446.27 233.74" style="fill:#B38D22"></polygon><polygon points="446.27 233.74 409.36 196.81 430.94 238.18 446.27 233.74" style="fill:#fff;opacity:0.15"></polygon><polygon points="409.36 196.81 452.76 229.64 468.09 225.2 409.36 196.81" style="fill:#B38D22"></polygon><polygon points="409.36 196.81 452.76 229.64 468.09 225.2 409.36 196.81" style="fill:#fff;opacity:0.15"></polygon><polygon points="452.76 229.64 446.57 241.4 446.27 233.74 409.36 196.81 452.76 229.64" style="fill:#B38D22"></polygon><polygon points="452.76 229.64 446.57 241.4 446.27 233.74 409.36 196.81 452.76 229.64" style="opacity:0.2"></polygon><polygon points="446.57 241.4 441.16 235.22 446.27 233.74 446.57 241.4" style="fill:#B38D22"></polygon><polygon points="446.27 233.74 441.16 235.22 442.02 236.21 446.27 233.74" style="opacity:0.2"></polygon><path d="M454,239.4a.57.57,0,0,0-.38.15.7.7,0,0,0-.06.89l1.1,1.44a.53.53,0,0,0,.8.09.67.67,0,0,0,.07-.89c-.36-.49-.73-1-1.1-1.46A.53.53,0,0,0,454,239.4Z" style="fill:#455a64"></path><path d="M459,246c.68,1,1.33,2,2,3a.68.68,0,0,1-.15.88.54.54,0,0,1-.79-.16c-.63-1-1.27-2-1.94-3a.69.69,0,0,1,.12-.89.54.54,0,0,1,.34-.12A.55.55,0,0,1,459,246Zm5,8.27c.58,1.08,1.14,2.16,1.68,3.25a.66.66,0,0,1-.23.85.53.53,0,0,1-.77-.25c-.53-1.07-1.08-2.14-1.66-3.19a.69.69,0,0,1,.19-.87.5.5,0,0,1,.3-.09A.58.58,0,0,1,464,254.24Zm4.21,8.82c.47,1.13.92,2.29,1.34,3.43a.66.66,0,0,1-.32.83.56.56,0,0,1-.74-.35q-.61-1.7-1.32-3.39a.66.66,0,0,1,.28-.83.54.54,0,0,1,.25-.06A.57.57,0,0,1,468.24,263.06Zm3.25,9.3c.34,1.2.65,2.41.93,3.6a.63.63,0,0,1-.4.77.56.56,0,0,1-.7-.45c-.27-1.16-.58-2.35-.92-3.54a.64.64,0,0,1,.37-.79l.18,0A.59.59,0,0,1,471.49,272.36Zm2.13,9.7c.19,1.23.35,2.47.49,3.71a.62.62,0,0,1-.5.7.58.58,0,0,1-.63-.55c-.14-1.21-.3-2.44-.49-3.64a.64.64,0,0,1,.47-.73h.1A.6.6,0,0,1,473.62,282.06Zm.91,9.94q0,1.47,0,2.94v.81a.59.59,0,0,1-.57.62h0a.62.62,0,0,1-.56-.64v-.79c0-1,0-1.94,0-2.9a.61.61,0,0,1,.55-.65h0A.6.6,0,0,1,474.53,292Zm-.83,9.29a.63.63,0,0,1,.51.69c-.12,1.24-.26,2.49-.43,3.72a.58.58,0,0,1-.65.53.63.63,0,0,1-.48-.71c.17-1.22.31-2.45.43-3.66a.6.6,0,0,1,.57-.57Zm-1.41,9.79a.64.64,0,0,1,.42.76c-.26,1.21-.56,2.43-.88,3.62a.58.58,0,0,1-.71.43.66.66,0,0,1-.38-.79c.31-1.17.6-2.37.86-3.56a.58.58,0,0,1,.56-.48A.32.32,0,0,1,472.29,311.08Zm-2.66,9.45a.66.66,0,0,1,.31.83c-.42,1.14-.89,2.3-1.37,3.42a.56.56,0,0,1-.77.3.66.66,0,0,1-.26-.84c.48-1.1.93-2.24,1.35-3.36a.58.58,0,0,1,.53-.4A.54.54,0,0,1,469.63,320.53Zm-3.95,8.89a.67.67,0,0,1,.19.86c-.59,1.07-1.21,2.13-1.85,3.15a.53.53,0,0,1-.79.16.68.68,0,0,1-.15-.88c.63-1,1.24-2,1.81-3.08a.57.57,0,0,1,.5-.31A.53.53,0,0,1,465.68,329.42Z" style="fill:#455a64"></path></g></g><g id="freepik--Device--inject-16"><g id="freepik--Mobile--inject-16"><g id="freepik--mobile--inject-16"><path d="M198.09,155.75,458,360c6.52,5.13,5.77,10.56,5.18,15.44s-3.32,11.54-8.89,14.76L311.61,472.54c-5.57,3.22-13.92,2.82-18.64-.89L33,267.46c-4.73-3.71-5.18-9.57-4.58-14.45s2.71-12.53,8.29-15.75l142.71-82.4C185,151.65,191.51,150.59,198.09,155.75Z" style="fill:#37474f"></path><path d="M190.45,162.13,43.7,246.86l261.07,205L302,474.7a15.91,15.91,0,0,1-9-3.05L33,267.46c-4.73-3.71-5.18-9.57-4.58-14.45s2.71-12.53,8.29-15.75l142.71-82.4c3.48-2,7.68-3.4,12.19-2.33l-.08.71Z" style="fill:#263238"></path><path d="M455.49,361.12,196,157.27c-3.74-2.94-10.41-3.25-14.82-.71L41.83,237c-6,3.45-6.74,9.55-1.67,13.53L298.05,453.11c3.3,2.6,9.18,2.88,13.08.62L454.26,371.1C458.67,368.55,459.23,364.06,455.49,361.12Z" style="fill:#455a64"></path><path d="M111.5,311.68a8.8,8.8,0,0,1,2.8,7.28,3.05,3.05,0,0,1-1.32,2.45c-.48.27-2.29,1.35-2.79,1.63a2.32,2.32,0,0,1-2.6-.48L86.92,306.33a8.85,8.85,0,0,1-2.8-7.29,3.17,3.17,0,0,1,1.23-2.39c.5-.31,2.38-1.4,2.88-1.67a2.31,2.31,0,0,1,2.61.47Z" style="fill:#455a64"></path><path d="M108.73,313.29,88.06,297.05c-1.86-1.46-3.62-.57-3.94,2a8.85,8.85,0,0,0,2.8,7.29l20.67,16.23c1.86,1.46,3.62.57,3.94-2A8.83,8.83,0,0,0,108.73,313.29Z" style="fill:#37474f"></path><path d="M75.33,283.28a8.77,8.77,0,0,1,2.8,7.28A3.11,3.11,0,0,1,76.82,293c-.48.26-2.29,1.34-2.79,1.62a2.33,2.33,0,0,1-2.61-.48L50.76,277.92a8.8,8.8,0,0,1-2.8-7.28,3.16,3.16,0,0,1,1.23-2.4c.49-.31,2.37-1.4,2.87-1.67a2.31,2.31,0,0,1,2.61.47Z" style="fill:#455a64"></path><path d="M72.56,284.88,51.9,268.65c-1.86-1.46-3.63-.57-3.94,2a8.8,8.8,0,0,0,2.8,7.28l20.66,16.23c1.86,1.46,3.63.57,3.94-2A8.8,8.8,0,0,0,72.56,284.88Z" style="fill:#37474f"></path><path d="M200.69,168.46,443,358.82c3.57,2.81,3.06,7.09-1.16,9.52L312.38,443.1c-4.21,2.45-10.54,2.15-14.13-.67L54.19,250.71c-2.91-2.28-3.13-5.52-.82-8,.18-.19.35-.38.55-.56a10.3,10.3,0,0,1,1.43-1l36.42-21,2.38-1.37a4.2,4.2,0,0,1,4.38.21,4.38,4.38,0,0,0,4.55.11l42.45-24.5c1.39-.81,1.64-2.17.53-3a1.65,1.65,0,0,1,.12-2.82l.23-.14,35.64-20.57.75-.44C188.14,164.53,196.18,164.92,200.69,168.46Z"></path><path d="M97.81,224.87a4.2,4.2,0,0,0-4.38-.21L91.05,226l-36.42,21a10.3,10.3,0,0,0-1.43,1c-.2.19-.37.37-.55.56s-.1.13-.16.2a7,7,0,0,0,1.7,1.9L298.25,442.43c3.59,2.82,9.92,3.12,14.13.67l129.49-74.76a8.61,8.61,0,0,0,2.14-1.73,6.91,6.91,0,0,0-1.7-1.93L200,174.32c-4.51-3.54-12.55-3.93-17.89-.85l-.75.44-34.7,20s-.54,4.44-.6,5a2.27,2.27,0,0,1-1.22,1.57L102.36,225A4.38,4.38,0,0,1,97.81,224.87Z" style="fill:#ebebeb"></path><path d="M88.74,244.83a.33.33,0,0,1-.17-.08l-.51-.48-1.62.93a.18.18,0,0,1-.24,0L86,245a.31.31,0,0,1-.08-.1.81.81,0,0,1,0-.11l-.13-2.69a.31.31,0,0,1,0-.11.22.22,0,0,1,.1-.09l.22-.12a.29.29,0,0,1,.19,0,.26.26,0,0,1,.17.09l1.81,1.66.36-.21a.26.26,0,0,1,.34.05l.13.11c.05.05.08.09.07.13s0,.08-.1.12l-.36.2.52.48s.08.09.07.13,0,.08-.11.12l-.27.16A.35.35,0,0,1,88.74,244.83Zm-1-1-1.28-1.18.11,1.86Z" style="fill:#455a64"></path><path d="M90.34,243.43a3,3,0,0,1-1.67-.82,1.73,1.73,0,0,1-.71-1.37,1.56,1.56,0,0,1,.92-1.16,3.19,3.19,0,0,1,.71-.31,2.17,2.17,0,0,1,.68-.12.1.1,0,0,1,.1,0l0,.06.08.3s0,.06,0,.07l-.09,0a2.3,2.3,0,0,0-1,.32,1,1,0,0,0-.62.79,1.33,1.33,0,0,0,.55,1,2.22,2.22,0,0,0,1.22.63,1.76,1.76,0,0,0,1.17-.24,2,2,0,0,0,.36-.26,1.11,1.11,0,0,0,.24-.26l-.84-.77-.68.39a.25.25,0,0,1-.18.05.38.38,0,0,1-.16-.09l-.12-.11c-.06-.06-.08-.1-.08-.14a.22.22,0,0,1,.11-.11l1.07-.62a.36.36,0,0,1,.21-.05.4.4,0,0,1,.2.11l1.2,1.1.08.1s0,.06,0,.1a2.25,2.25,0,0,1-1,1A2.7,2.7,0,0,1,90.34,243.43Z" style="fill:#455a64"></path><path d="M103.76,235.4a.72.72,0,0,1-.22,1.21,1.49,1.49,0,0,1-1.66-.13.72.72,0,0,1,.22-1.2A1.51,1.51,0,0,1,103.76,235.4Z" style="fill:#455a64"></path><path d="M100.91,234.19a2.06,2.06,0,0,0-1.17,2.19.45.45,0,0,0,.46.27h0c.29,0,.51-.19.46-.4a1.45,1.45,0,0,1,.82-1.54,3,3,0,0,1,2.25-.23.5.5,0,0,0,.63-.23h0c.06-.16,0-.33-.26-.39A4.18,4.18,0,0,0,100.91,234.19Z" style="fill:#455a64"></path><path d="M99.76,233.13a3.34,3.34,0,0,0-1.93,3.23.42.42,0,0,0,.46.31h0c.28,0,.49-.18.47-.38a2.72,2.72,0,0,1,1.56-2.64,5.46,5.46,0,0,1,3.9-.51.53.53,0,0,0,.61-.24h0c.06-.17-.08-.34-.3-.4A6.65,6.65,0,0,0,99.76,233.13Z" style="fill:#455a64"></path><polygon points="71.28 255.48 70.29 254.56 72.01 253.57 73.01 254.49 71.28 255.48" style="fill:#455a64"></polygon><polygon points="73.87 253.99 71.88 252.16 73.6 251.16 75.59 252.99 73.87 253.99" style="fill:#455a64"></polygon><polygon points="76.45 252.5 73.46 249.75 75.19 248.75 78.18 251.5 76.45 252.5" style="fill:#455a64"></polygon><polygon points="79.04 251 75.05 247.34 76.78 246.34 80.76 250.01 79.04 251" style="fill:#455a64"></polygon><path d="M184,185.63a1.4,1.4,0,0,0-.93.1l-6.44,3.71c-.42.24-.41.74,0,1.13l1.81,1.67a1.87,1.87,0,0,0,.94.44,1.81,1.81,0,0,0,.46,0,1,1,0,0,0,.47-.13l6.44-3.71c.42-.24.41-.74,0-1.13l-1.81-1.67A1.91,1.91,0,0,0,184,185.63Zm-4.6,6.78a.82.82,0,0,1-.4-.21l-1.81-1.66c-.32-.29-.33-.69,0-.86l6.44-3.71a.61.61,0,0,1,.25-.08H184a.82.82,0,0,1,.4.21l1.81,1.67c.31.29.32.68,0,.86l-6.44,3.71A.53.53,0,0,1,179.36,192.41Z" style="fill:#455a64"></path><path d="M178.67,189.26l2.14,2-1,.58a.34.34,0,0,1-.31,0l-1.6-1.46c-.22-.21-.23-.51,0-.64Z" style="fill:#455a64"></path><polygon points="179.14 188.99 180.35 188.29 182.49 190.26 181.28 190.96 179.14 188.99" style="fill:#455a64"></polygon><polygon points="180.82 188.03 182.03 187.33 184.18 189.31 182.97 190 180.82 188.03" style="fill:#455a64"></polygon><path d="M183.85,186.49l1.55,1.42c.28.27.15.61-.35.89l-.4.24-2.15-2,1-.55A.49.49,0,0,1,183.85,186.49Z" style="fill:#455a64"></path><path d="M185.15,186c.18-.11.63.09,1,.43l.33.31c.38.34.54.71.37.82l-.31.2-1.71-1.57Z" style="fill:#455a64"></path><polygon points="167.28 196.62 172.57 192.12 174.16 196.47 171.28 195.19 167.28 196.62" style="fill:#455a64"></polygon><path d="M102.76,210.09l19.46-11.24a3.65,3.65,0,0,1,3.77.1c.92.72.73,1.86-.43,2.53L106.1,212.71a3.63,3.63,0,0,1-3.77-.1C101.41,211.89,101.6,210.76,102.76,210.09Z" style="fill:#263238"></path><path d="M131.52,192.55a4.24,4.24,0,0,1,4.38.21c1.11.87.94,2.19-.36,3a4.24,4.24,0,0,1-4.38-.21C130.06,194.63,130.22,193.31,131.52,192.55Z" style="fill:#263238"></path><path d="M159.59,229.07h0l-2.3-1.8a2.88,2.88,0,0,0-3-.29l-2.82,1.62a1.15,1.15,0,0,0,0,2l2.3,1.8h0a.88.88,0,0,0,0,1.56l4.63,3.64a2.24,2.24,0,0,0,2.3.22l5.89-3.4a.88.88,0,0,0,0-1.56l-4.64-3.64A2.22,2.22,0,0,0,159.59,229.07Zm-7.52,1.21c-.46-.37-.46-.89,0-1.16l2.82-1.63a1.66,1.66,0,0,1,1.71.16l2.29,1.81-4.54,2.62Z" style="fill:#455a64"></path><path d="M176.47,288c.5.39.45.75-.13,1.09l-.76.44a1.33,1.33,0,0,1-1.63-.08l-20.23-15.88-2.49,7.81c-.19.51-.65.72-1.38.61l-.92-.11a1.25,1.25,0,0,1-.75-.33.52.52,0,0,1-.14-.59l3-9.3a1,1,0,0,1,.32-.46,4.16,4.16,0,0,1,.49-.33l.76-.44a1.35,1.35,0,0,1,1.63.08Z" style="fill:#455a64"></path><path d="M165.91,271.84a8,8,0,0,1-1.85-2.21,5.2,5.2,0,0,1-.71-2.72,5.35,5.35,0,0,1,1-2.89,9.58,9.58,0,0,1,3.26-2.79,15.66,15.66,0,0,1,4.46-1.79,14.27,14.27,0,0,1,4.16-.31,11.47,11.47,0,0,1,3.68.88,12.66,12.66,0,0,1,3,1.75,7.13,7.13,0,0,1,2.65,3.56,9.91,9.91,0,0,1,.08,4.54l-1.29,11.75,13.42-7.74a1.39,1.39,0,0,1,1.7.08l.51.4c.5.39.44.76-.18,1.12L183.43,285a1.35,1.35,0,0,1-1.63-.08l-.51-.4a1.19,1.19,0,0,1-.44-.65,2.49,2.49,0,0,1,0-1.05l1.58-12.89a14.75,14.75,0,0,0,.25-2.32,5.51,5.51,0,0,0-.24-1.74,4,4,0,0,0-.74-1.37,8,8,0,0,0-1.28-1.23,8.75,8.75,0,0,0-5.09-1.92,10.29,10.29,0,0,0-5.69,1.53c-1.85,1.07-2.84,2.25-3,3.55a4.78,4.78,0,0,0,1.66,3.88.66.66,0,0,1,.22.68.85.85,0,0,1-.36.46l-.8.46A1.21,1.21,0,0,1,165.91,271.84Z" style="fill:#455a64"></path><path d="M197,259.93a.58.58,0,0,1,.28.58.86.86,0,0,1-.46.54l-1.92,1.11a1.35,1.35,0,0,1-1.63-.08l-1.63-1.28a.68.68,0,0,1-.31-.58.69.69,0,0,1,.41-.54l1.93-1.11a1.5,1.5,0,0,1,.88-.21,1.36,1.36,0,0,1,.82.29Zm11.88,9.33a.58.58,0,0,1,.28.58.87.87,0,0,1-.45.54l-1.93,1.11a1.35,1.35,0,0,1-1.63-.08l-1.62-1.28a.66.66,0,0,1-.32-.58.68.68,0,0,1,.42-.54l1.92-1.11a1.56,1.56,0,0,1,.88-.21,1.4,1.4,0,0,1,.82.29Z" style="fill:#455a64"></path><path d="M207.7,238.56a1.39,1.39,0,0,1,1.7.08l.51.4a.7.7,0,0,1,.26.33,2.29,2.29,0,0,1,.07.36l-.07,11.46.8-.46a20.25,20.25,0,0,1,4.15-1.84,15,15,0,0,1,4.15-.71,12.38,12.38,0,0,1,4,.58,11.44,11.44,0,0,1,3.63,2,7.09,7.09,0,0,1,2.29,2.78,4.5,4.5,0,0,1,.2,2.89,6.78,6.78,0,0,1-1.67,2.83,14.22,14.22,0,0,1-3.33,2.58,19.78,19.78,0,0,1-4.5,1.92,17.91,17.91,0,0,1-4.29.7,13.38,13.38,0,0,1-3.73-.37,7.93,7.93,0,0,1-2.86-1.28.52.52,0,0,1-.24-.52.83.83,0,0,1,.44-.48l.56-.32a1.9,1.9,0,0,1,.75-.25,2,2,0,0,1,1.11.24,8.22,8.22,0,0,0,2.88.81,10.61,10.61,0,0,0,2.82-.13,12.35,12.35,0,0,0,2.66-.77,20.73,20.73,0,0,0,2.36-1.15,11.89,11.89,0,0,0,2.54-1.89,4.91,4.91,0,0,0,1.29-2,3,3,0,0,0-.12-2.09,5.11,5.11,0,0,0-1.68-2,7.77,7.77,0,0,0-5.38-1.8,13.67,13.67,0,0,0-6,2l-3.52,2a1.35,1.35,0,0,1-1.63-.07l-.51-.4a1.21,1.21,0,0,1-.36-.42,1.27,1.27,0,0,1-.09-.43V241.8l-12.1,7a1.33,1.33,0,0,1-1.62-.08l-.51-.4c-.52-.41-.49-.78.1-1.12Z" style="fill:#455a64"></path><path d="M246.78,247.36c.5.39.45.75-.13,1.09l-.77.44a1.35,1.35,0,0,1-1.63-.08L224,232.92l-2.49,7.82c-.19.51-.65.71-1.38.61l-.92-.12a1.24,1.24,0,0,1-.76-.32.54.54,0,0,1-.13-.59l3-9.31a1,1,0,0,1,.32-.45,3.09,3.09,0,0,1,.48-.33l.77-.44a1.33,1.33,0,0,1,1.62.08Z" style="fill:#455a64"></path><path d="M180.06,319.37l102.72-59.31a8.94,8.94,0,0,1,9.25.45l23.36,18.34c2.34,1.84,2,4.63-.76,6.22L211.9,344.38a8.91,8.91,0,0,1-9.25-.44L179.29,325.6C177,323.76,177.29,321,180.06,319.37Z" style="fill:#fff"></path><path d="M222.14,352.44l102.73-59.31a8.92,8.92,0,0,1,9.25.44l23.35,18.34c2.35,1.84,2,4.63-.76,6.23L254,377.45a8.94,8.94,0,0,1-9.25-.44l-23.35-18.35C219,356.82,219.38,354,222.14,352.44Z" style="fill:#fff"></path><path d="M264.23,385.5,367,326.19a8.91,8.91,0,0,1,9.25.44L399.56,345c2.34,1.84,2,4.62-.77,6.22L296.07,410.51a8.91,8.91,0,0,1-9.25-.44l-23.36-18.35C261.12,389.88,261.46,387.1,264.23,385.5Z" style="fill:#fff"></path><path d="M306,388.13h-.05a10.15,10.15,0,0,1-6.55-1.73l-3-2.36c-3.42-2.69-9.47-3-13.51-.64h0c-4,2.33-4.54,6.4-1.12,9.09l2.68,2.1a4.52,4.52,0,0,1,1.87,4.83l.56,1.26a3.26,3.26,0,0,0,3.4.16L307.36,391a1.3,1.3,0,0,0,.28-2.29A2.92,2.92,0,0,0,306,388.13Zm-3,11.05c1.94-1.12,2.18-3.08.53-4.37l-7,4.06A6.29,6.29,0,0,0,303,399.18Z" style="fill:#e0e0e0"></path><path d="M264,354.29h-.05a10.12,10.12,0,0,1-6.55-1.73l-3-2.36c-3.43-2.69-9.48-3-13.52-.64h0c-4,2.33-4.54,6.4-1.11,9.09l2.68,2.1a4.55,4.55,0,0,1,1.87,4.83l.55,1.26a3.27,3.27,0,0,0,3.4.16l17.09-9.86a1.3,1.3,0,0,0,.28-2.29A2.91,2.91,0,0,0,264,354.29Zm-3,11c1.94-1.12,2.18-3.07.54-4.36l-7,4A6.24,6.24,0,0,0,261,365.33Z" style="fill:#e0e0e0"></path></g><g id="freepik--Shine--inject-16" style="opacity:0.30000000000000004"><polygon points="300.3 246.69 269.35 222.39 219.87 380.84 250.81 405.15 300.3 246.69" style="fill:#fff"></polygon><path d="M393.73,326.53l-52.45-41.21-47.87,153.3,4.84,3.81c3.59,2.82,9.92,3.12,14.13.67l54.84-31.67Z" style="fill:#fff"></path><path d="M191.71,358.73l49.48-158.46-40.5-31.81c-4.51-3.54-12.55-3.93-17.89-.85l-.75.44-21.47,12.39L122,304Z" style="fill:#fff"></path></g></g></g><g id="freepik--Character--inject-16"><ellipse id="freepik--shadow--inject-16" cx="272.82" cy="319.32" rx="67.37" ry="35.31" style="opacity:0.2"></ellipse><g id="freepik--character--inject-16"><path d="M302.24,339s20.95-7.55,27.78-18.62c-.63-12.27-1.81-34.3-2-34.16l-39.49,4.09,8.35,34.62Z" style="fill:#37474f"></path><path d="M317.64,317.33c3.7-6.41,6.92-21.8,6.93-27H217.76s-2,23.08-1.83,32.36c0,0,0,.07,0,.1v0c2.23,5.51,7.48,8.89,19.44,14.08,22.14,9.59,52.18,8.13,66.86,2.12v-4.89S313.94,323.74,317.64,317.33Z" style="fill:#455a64"></path><g id="freepik--Top--inject-16"><g id="freepik--top--inject-16"><path d="M345.07,185.92c17.4,15.18,20.59,18.28,20.59,18.28,4.79-19.93,8.75-33.86,9.36-42.32s11.54-27,11.54-27c8.71,2.25,15.55,16,11.14,30-3.21,10.19,2.86,35-3.38,67.77-3.27,17.16-12.77,21.22-31.21,10.81-12.92-7.29-36.25-24.18-36.25-24.18l-17.71-58.9C324,163,328.12,171.13,345.07,185.92Z" style="fill:#ffa8a7"></path><path d="M312,160.12c8.42,1.66,14.21,6,23.82,15.56s29.94,28,29.94,28a49.22,49.22,0,0,0-.9,28.41c3.6,13.84,9.17,16.17,9.17,16.17s-4.39,1.27-16-6.22-37.46-26-37.46-26Z" style="fill:#455a64"></path><path d="M366.76,199.66s-2,31.77,7.74,40.62,16,3,16,3-.51,9-6.43,8.73-6.84.17-10.32.06-8.94-.59-11.41-7.54c-7.28-14.07-4.6-32.54.46-43.66C364.49,201.73,364.48,199.3,366.76,199.66Z" style="fill:#37474f"></path><path d="M411.61,135.73c-.23,5.71-2.45,9.59-3.61,12.52-4.5,11.37-7,10-11.5,18.78l-9.43-24.39c-4.11-7.21-.87-10.41,5.48-11.92Z" style="fill:#f28f8f"></path><g id="freepik--Megaphone--inject-16"><path d="M356.09,125.85a13.81,13.81,0,1,0-3.8-19.16A13.81,13.81,0,0,0,356.09,125.85Z" style="fill:#455a64"></path><path d="M361.38,121.09l16.15-8A13.81,13.81,0,0,1,351,119.6C353.23,122.58,356.19,123.64,361.38,121.09Z" style="fill:#37474f"></path><path d="M373.21,117.42l.72-11.09A142.13,142.13,0,0,0,405,131.76l-.29,4.44C397.38,134,384.63,126.06,373.21,117.42Z" style="fill:#37474f"></path><path d="M366.63,127.09l6.54-.5,12.63,8.32a19.32,19.32,0,0,0,18.95,1.29h0c-8.56-3-21.08-11-31.54-18.78Z" style="fill:#455a64"></path><path d="M388.06,126l0,.33a1.82,1.82,0,0,1-.91,1.36l-2.29,1.13c-.47.23-.49.65-.06.94l.27.18a1.82,1.82,0,0,0,1.64.11l2.32-1.14a1.78,1.78,0,0,0,.9-1.36v-.31a1.82,1.82,0,0,0-.74-1.47l-.27-.19C388.47,125.31,388.09,125.5,388.06,126Z" style="fill:#B38D22"></path><path d="M392.37,128.49l0,.32a1.83,1.83,0,0,1-.92,1.37l-2.28,1.12c-.47.24-.5.66-.06.95l.27.18a1.82,1.82,0,0,0,1.64.11l2.32-1.14a1.76,1.76,0,0,0,.89-1.37l0-.31a1.82,1.82,0,0,0-.74-1.47l-.27-.18C392.78,127.78,392.4,128,392.37,128.49Z" style="fill:#B38D22"></path><path d="M396.68,131l0,.33a1.87,1.87,0,0,1-.92,1.37l-2.28,1.12c-.47.23-.5.65-.06.95l.27.17a1.77,1.77,0,0,0,1.63.11l2.32-1.14a1.76,1.76,0,0,0,.9-1.36l0-.31a1.88,1.88,0,0,0-.74-1.47l-.27-.18C397.09,130.24,396.71,130.43,396.68,131Z" style="fill:#B38D22"></path><path d="M366.87,94.79h0c-1.91.94-3.25,3-3.67,6.08,0,.32-.08.65-.1,1s0,.81,0,1.23a16.24,16.24,0,0,0,.14,2.07,22.87,22.87,0,0,0,.82,3.89,27.19,27.19,0,0,0,5.22,9.62,19.69,19.69,0,0,0,3.84,3.46c2.92,2,5.66,2.34,7.76,1.39l-7.2,3.55h0a9,9,0,0,1-8.72-.9,18.58,18.58,0,0,1-3.68-3.29,27,27,0,0,1-5.38-9.8,21.84,21.84,0,0,1-.82-3.88,16.39,16.39,0,0,1-.14-2.08c0-.41,0-.82,0-1.22s.06-.67.11-1a9,9,0,0,1,4.49-6.47h0l.2-.1a2.06,2.06,0,0,1,.26-.12Z" style="fill:#B38D22"></path><path d="M373.65,127.08h0a9,9,0,0,1-8.72-.9,18.58,18.58,0,0,1-3.68-3.29l8-4.2a19.69,19.69,0,0,0,3.84,3.46c2.92,2,5.66,2.34,7.76,1.39Z" style="opacity:0.1"></path><path d="M374.8,96.11c6,4,10.47,13.08,10,20.26-.23,3.62-1.68,6.07-3.82,7.1l-.12.06c-2.1,1-4.84.57-7.76-1.39-6-4-10.46-13.08-10-20.27.24-3.58,1.66-6,3.77-7.07S371.8,94.1,374.8,96.11Z" style="fill:#B38D22"></path><path d="M374.8,96.11c6,4,10.47,13.08,10,20.26-.23,3.62-1.68,6.07-3.82,7.1l-.12.06c-2.1,1-4.84.57-7.76-1.39-6-4-10.46-13.08-10-20.27.24-3.58,1.66-6,3.77-7.07S371.8,94.1,374.8,96.11Z" style="opacity:0.2"></path><path d="M392.51,66.28S391,79,399.64,96.47a76.81,76.81,0,0,0,5.25,9.06c7.25,10.73,14.34,15,14.34,15-8.8-1.8-18.31-3.08-27.71-.89a106.2,106.2,0,0,0-10.84,3.17h0c-1.94.95-4.5.55-7.19-1.25a19.68,19.68,0,0,1-4.81-4.75,25.22,25.22,0,0,1-2.36-3.91,22.36,22.36,0,0,1-2.5-11c.22-3.23,1.46-5.51,3.39-6.46h0a106.71,106.71,0,0,0,9.12-6.66C383.79,82.67,388.57,74.35,392.51,66.28Z" style="fill:#B38D22"></path><path d="M392.51,66.28S391,79,399.64,96.47a76.81,76.81,0,0,0,5.25,9.06c7.25,10.73,14.34,15,14.34,15-8.8-1.8-18.31-3.08-27.71-.89a106.2,106.2,0,0,0-10.84,3.17h0c-1.94.95-4.5.55-7.19-1.25a19.68,19.68,0,0,1-4.81-4.75,25.22,25.22,0,0,1-2.36-3.91,22.36,22.36,0,0,1-2.5-11c.22-3.23,1.46-5.51,3.39-6.46h0a106.71,106.71,0,0,0,9.12-6.66C383.79,82.67,388.57,74.35,392.51,66.28Z" style="fill:#fff;opacity:0.6000000000000001"></path><path d="M404.89,105.53c7.25,10.73,14.34,15,14.34,15-8.8-1.8-18.31-3.08-27.71-.89a106.2,106.2,0,0,0-10.84,3.17h0c-1.94.95-4.5.55-7.19-1.25a19.68,19.68,0,0,1-4.81-4.75C377.08,112,391.48,104.83,404.89,105.53Z" style="opacity:0.1"></path><path d="M418,57.47c6.24,4.18,11.8,10.67,16,18.09h0c5.34,9.51,8.42,20.53,7.79,30.13-1.13,17.11-13.6,23.25-27.85,13.72a45.52,45.52,0,0,1-9.11-8.23,64.05,64.05,0,0,1-13.9-28.89c-.27-1.45-.48-2.88-.62-4.31-.06-.59-.11-1.19-.14-1.78h0c-.05-.84-.08-1.67-.07-2.49s0-1.7.08-2.53C391.25,54.08,403.71,47.94,418,57.47Z" style="fill:#B38D22"></path><path d="M433.94,75.57c5.34,9.51,8.42,20.53,7.79,30.13-1.13,17.11-13.6,23.25-27.85,13.72a45.52,45.52,0,0,1-9.11-8.23h0c2.4.39,7-.85,6.09-3.42a41.25,41.25,0,0,0,8.1,7.28c4.09,2.74,8,4,11.32,3.76a8.8,8.8,0,0,0,6.8-4.16,20.43,20.43,0,0,0,2.91-10c.54-8.17-1.95-17.68-6.31-26.16C433.68,78.54,434.85,78.21,433.94,75.57Z" style="opacity:0.1"></path><path d="M417.74,59.53c6.29,4.21,11.92,11.17,15.94,19,4.36,8.48,6.85,18,6.31,26.16a20.43,20.43,0,0,1-2.91,10,8.8,8.8,0,0,1-6.8,4.16c-3.31.28-7.23-1-11.32-3.76a41.25,41.25,0,0,1-8.1-7.28q-1.42-1.63-2.74-3.44a60.66,60.66,0,0,1-4.22-6.63c-.26-.48-.51-1-.76-1.44-.42-.8-.82-1.61-1.2-2.42a60.57,60.57,0,0,1-3.25-8.56l0-.1a50.48,50.48,0,0,1-1.35-5.73c-.24-1.36-.42-2.71-.53-4,0-.56-.09-1.11-.11-1.66s0-1.32,0-2,0-1.26.07-1.88a20.48,20.48,0,0,1,2.91-10C403.24,54.51,410,54.37,417.74,59.53Z" style="fill:#B38D22"></path><path d="M417.74,59.53c6.29,4.21,11.92,11.17,15.94,19,4.36,8.48,6.85,18,6.31,26.16a20.43,20.43,0,0,1-2.91,10,8.8,8.8,0,0,1-6.8,4.16c-3.31.28-7.23-1-11.32-3.76a41.25,41.25,0,0,1-8.1-7.28q-1.42-1.63-2.74-3.44a60.66,60.66,0,0,1-4.22-6.63c-.26-.48-.51-1-.76-1.44-.42-.8-.82-1.61-1.2-2.42a60.57,60.57,0,0,1-3.25-8.56l0-.1a50.48,50.48,0,0,1-1.35-5.73c-.24-1.36-.42-2.71-.53-4,0-.56-.09-1.11-.11-1.66s0-1.32,0-2,0-1.26.07-1.88a20.48,20.48,0,0,1,2.91-10C403.24,54.51,410,54.37,417.74,59.53Z" style="opacity:0.4"></path><path d="M412.36,79.32,420.74,96c-3.83,2.07-8.54,4.56-11.73,9.56-.3-.39-.59-.78-.88-1.18a59.19,59.19,0,0,1-4.22-6.63c-.27-.48-.52-1-.77-1.44-.42-.8-.82-1.61-1.2-2.42a60.57,60.57,0,0,1-3.25-8.56l0-.1c-.12-.42-.24-.84-.35-1.27C404.31,84.38,412.36,79.32,412.36,79.32Z" style="fill:#37474f"></path><path d="M421.67,95c-1.12,1.67-3.12,1.76-5.37.26l-.07,0a14.77,14.77,0,0,1-5.91-12v-.08a5.68,5.68,0,0,1,.83-2.8c1.11-1.66,3.12-1.76,5.37-.25l.07,0a14.82,14.82,0,0,1,5.9,12v.08a5.9,5.9,0,0,1-.83,2.8Z" style="fill:#B38D22"></path></g><path d="M390.47,121.66s2.83-.84,3.83-1c2.38-.52,4.15-1.38,5.93.37.61.6,1,1.73,1.66,2.21s2.34.32,3.28.52a4.5,4.5,0,0,1,2.79,1.66c.45.63.57,1.78,1.18,2.15s2,.39,2.89.76c1.92.83,2.46,3.39,3.17,5.14s2.05,4.5,1.23,6.53a8.9,8.9,0,0,1-3.12,3.66,49.82,49.82,0,0,1-4.84,3.31,3,3,0,0,1-3.87-1c-1.2-1.55-3.48-1-4.92-2.33-.63-.59-.81-1.47-1.42-2.07a4.74,4.74,0,0,1-1.66-2.22c-.49-1.81.39-3.77.76-5.53a10.87,10.87,0,0,0-.5-4.85c-.33-1.15-.86-2.94-1.88-3.73Z" style="fill:#ffa8a7"></path><path d="M375,161.88c.24-10.65-.41-15.23-.39-20.26,0-5.73,4-9,8.73-12.81a55.84,55.84,0,0,0,7.07-6.57c1.77-2,3.34,4.1,3,6.38-.43,2.74-3,5.87-4.67,8.31-3.85,5.56,11.32,13.32,7.76,30.1C393,172.49,375,161.88,375,161.88Z" style="fill:#ffa8a7"></path><g id="freepik--Chest--inject-16"><path d="M326.35,204.52c-.93-33.25-15.66-42.37-21.46-44.77L281.27,155c-7.21.79-37.92,10-46.39,12.1-5.44,1.34-5.19,11.94-7.94,29.4-2.23,14.18-3.48,26.13-4.82,45.9-1.13,16.57-2.46,35.44.47,58.88,37.36,11.4,73.21,16.86,101-4.43-.65-4.67,2.18-43.57,2.41-55S326.6,213.52,326.35,204.52Z" style="fill:#fafafa"></path><path d="M228.51,167.89l29.9-9.49s2.53,7.78,8.11,22.78,5.26,24.24,3.59,49.36-2.21,79.14-4.6,101.62c-11.18.52-41.84-8.4-51-20.79,0,0,3.17-45.54,4.6-71.24S215.3,174,228.51,167.89Z" style="fill:#B38D22"></path><path d="M228.51,167.89l29.9-9.49s2.53,7.78,8.11,22.78,5.26,24.24,3.59,49.36-2.21,79.14-4.6,101.62c-11.18.52-41.84-8.4-51-20.79,0,0,3.17-45.54,4.6-71.24S215.3,174,228.51,167.89Z" style="opacity:0.15"></path><path d="M291.75,159.33c9.78,4.88,15.73,16.79,16.69,32.59s4.46,47.41,5,59.32c2.43,51.77,5.07,65.68,5.07,65.68,4.86-2.5,10.9-5.46,11.76-12.58-1.09-11.08-1.77-53.43-1.86-63.32s-.65-32.76-1-44.85-3.28-27.33-13.39-35.53a100.41,100.41,0,0,0-21.9-4Z" style="fill:#B38D22"></path><path d="M291.75,159.33c9.78,4.88,15.73,16.79,16.69,32.59s4.46,47.41,5,59.32c2.43,51.77,5.07,65.68,5.07,65.68,4.86-2.5,10.9-5.46,11.76-12.58-1.09-11.08-1.77-53.43-1.86-63.32s-.65-32.76-1-44.85-3.28-27.33-13.39-35.53a100.41,100.41,0,0,0-21.9-4Z" style="opacity:0.15"></path><path d="M309.15,201.06c-.33-11.59-5-32.7-17-38a10,10,0,0,1-.4-3.7l.67-5.94a51,51,0,0,1,10.11,6.14c5,4,13.26,15.88,14.83,25C312.41,179.49,309.59,186.72,309.15,201.06Z" style="fill:#B38D22"></path><path d="M309.15,201.06c-.33-11.59-5-32.7-17-38a10,10,0,0,1-.4-3.7l.67-5.94a51,51,0,0,1,10.11,6.14c5,4,13.26,15.88,14.83,25C312.41,179.49,309.59,186.72,309.15,201.06Z" style="fill:#fff;opacity:0.45"></path><g id="freepik--Head--inject-16"><path d="M260,146.94c-2.13-7.89-10.9-15.5-15.16-22.15-4.11-6.41-6.67-11.44-6.88-17.82-.12-3.77,1.76-9.09,4.44-10.42-4.54-13.64,5.31-21.11,10.75-23a60.39,60.39,0,0,0,7.48-2.87c2.91-1.55,3.36-4,5.6-6.35,3.86-4,10.92-4.71,14.12.42,2.45-3.87,6.25-4.14,10.73-3.44a7.5,7.5,0,0,1,6.53,7.9c5.54-3.83,11.3-.21,12.16,3.18.64,2.5.3,4.69,2.18,6.8,2.11,2.39,5.65,2,6.52-.16.95,3.55-.2,6.43-4.12,6.6A8.24,8.24,0,0,1,316,92.44a7.52,7.52,0,0,1-6.27,5.8c-.22,2-.14,3.84-1.22,5.66a13,13,0,0,1-4.2,4.59c-5.65,3.38-12.11,4.92-18.37,6.85l-7.41,2.28c-.44.14-2.71.49-2.94.91Z" style="fill:#263238"></path><path d="M249.29,137.49c6,2.83,9.44-1.17,9.44-1.17l.65,14.13.32,15.3s16,17.1,37.73,16.07c1.1-4.88-.49-13.44-4-17.64l-.54-12.51a77.39,77.39,0,0,0,9.5-1.34c6.21-1.45,11.05-6.93,12.19-13.91,1.2-7.3.61-19-1.74-27.36a23.64,23.64,0,0,1-1-6.57c.05-5.91-1.33-9.21-3.3-14-7.45-4.91-27.13-4.21-41.19,6.27C271.31,102.09,270,110,263.9,114c.53,2.37,1.4,8.4-2.55,8.66-2.85.19-3.38-3.35-6.59-6.21s-10.09-3.06-12.29,1.82C239.4,125.1,242.77,134.39,249.29,137.49Z" style="fill:#ffa8a7"></path><path d="M292.9,151.67c-10.08-.23-17.76-.6-23.64-7.33-3.69-4.23-7.14-11.25-7.14-11.25s1.86,8.73,5.69,14.41c2.94,4.37,9.47,7.63,25.24,7.49Z" style="fill:#f28f8f"></path><path d="M285,112.59a2.82,2.82,0,1,1-3-2.7A2.86,2.86,0,0,1,285,112.59Z" style="fill:#263238"></path><path d="M282.06,104.43l-5.83,3.66a3.61,3.61,0,0,1,1.13-4.87A3.36,3.36,0,0,1,282.06,104.43Z" style="fill:#263238"></path><path d="M308.28,103.31l-6.84-1.2a3.34,3.34,0,0,1,3.89-2.87A3.65,3.65,0,0,1,308.28,103.31Z" style="fill:#263238"></path><path d="M307.67,109.71a2.82,2.82,0,1,1-3.05-2.7A2.87,2.87,0,0,1,307.67,109.71Z" style="fill:#263238"></path><path d="M305,120.7,295.63,126l-4.83-18.86C294.3,105.47,299.81,113.82,305,120.7Z" style="fill:#f28f8f"></path><path d="M286.06,131.43l12,1.39a5.93,5.93,0,0,1-6.54,5.48A6.32,6.32,0,0,1,286.06,131.43Z" style="fill:#b16668"></path><path d="M287.67,133.2a7,7,0,0,0-1.46.16,6.24,6.24,0,0,0,5.29,4.94,5.9,5.9,0,0,0,1.93-.13C293.35,135.45,290.82,133.24,287.67,133.2Z" style="fill:#f28f8f"></path></g><path d="M271.15,205.28c-.7-22.76-10-24.79-12.88-17.6-7.06-13-6.44-23.57-5.92-27.76,2.59-3.66,3.61-6,4.49-7.34a4.49,4.49,0,0,1,2.54-2.13l.27,5.72s.71,6.67,6.67,15.56C270.7,178.26,271.73,186.19,271.15,205.28Z" style="fill:#B38D22"></path><path d="M271.15,205.28c-.7-22.76-10-24.79-12.88-17.6-7.06-13-6.44-23.57-5.92-27.76,2.59-3.66,3.61-6,4.49-7.34a4.49,4.49,0,0,1,2.54-2.13l.27,5.72s.71,6.67,6.67,15.56C270.7,178.26,271.73,186.19,271.15,205.28Z" style="fill:#fff;opacity:0.45"></path></g><g id="freepik--Arm--inject-16"><path d="M234.52,166c-18.15,5.49-26.25,8.52-32.15,20.25S186.21,227,180.49,244.66c-4.91,15.1-7.59,28.85-4.34,35.8L211.49,269l18.66-45.67S242.27,195,234.52,166Z" style="fill:#455a64"></path><path d="M210.69,255.37c2.58-.32,5.16.08,7.61-.82a4.42,4.42,0,0,0,2.84-2.24c.55-1.51-.5-3.11-1.63-4.25A22.81,22.81,0,0,0,208,242.11,35.54,35.54,0,0,0,183.5,246c-4.43,2.39-9.85,5.63-10.16,11.27-.1,1.7.28,3.45-.23,5.07-.34,1.08-1.06,2-1.45,3.07a10.43,10.43,0,0,0-.51,3,8,8,0,0,0,.33,3.64c.3.72.82,1.35,1.13,2.07a28.44,28.44,0,0,1,.78,3.46c.66,2.32,3.18,5,5.29,2.67,1.91-2.12,2.56-5,3.81-7.51,1.45-2.89,4.16-5.11,6.71-7a65.94,65.94,0,0,1,11.07-6.5,43.39,43.39,0,0,1,9.23-3.59C209.9,255.49,210.29,255.42,210.69,255.37Z" style="fill:#37474f"></path><path d="M223.86,244c-3.35,4-13.45,5.19-20.56,7.18s-15.86,5.37-20.72,12.8c-4.28,6.53-8.8,11.91-6.67,17.05,1.47,3.54,9.57,5.42,19.07,5.49s18-8.59,28-14.65c8.58-5.2,12.52-7.62,12.52-7.62Z" style="fill:#f28f8f"></path><path d="M235.92,249.71c-3.09-3.22-3.6-6.45-8.23-9.2s-7.57-2.71-12.5-5.34-8.94-4-12.72-2.86-3.23,3.31-.44,5.14,7.59,4.26,10.91,6.78,6.58,4,6.51,8.24a190.27,190.27,0,0,1-1.88,20.16c-1,7.13-2.58,12.89-2.06,13.67s3.58,1.19,5.54-2.76,4.68-18.45,4.68-18.45,1.19,10.11,1.63,17.07.56,12.28.73,13.76,5.12.44,6-4.78.15-20.79.15-20.79,4,7.15,6.51,11.79,5.69,10.94,6.73,12.5,4.22-1.11,3.55-5.29-5.82-14.49-5.82-14.49,6.33,6.88,7.45,7.56,4.56.21,3.47-4.41c-.73-3.1-2.66-5.09-7.74-11.13s-5-8.49-6.53-11.24C239.82,252,238.17,252,235.92,249.71Z" style="fill:#ffa8a7"></path><path d="M223,251.88c5.11,2.38,10.22.16,10.94-1.11C233.54,254.32,226.42,256.27,223,251.88Z" style="fill:#f28f8f"></path><path d="M256.23,280.67c-.49.64-2,.83-3.24-.28s-4.43-4.78-5.85-6.47-6.31-7.69-6.31-7.69l4.39,8.63s6.33,6.88,7.45,7.56A2.52,2.52,0,0,0,256.23,280.67Z" style="fill:#f28f8f"></path></g></g></g></g></g><g id="freepik--speech-bubble--inject-16"><g id="freepik--speech-bubble--inject-16"><g id="freepik--speech-bubble--inject-16"><path d="M212.54,93.57c-5.93,20.22-21.65,36.38-72,46.11l2.67,14.22-19.38-11.72c-.34.07-38,1.6-56.11-8.53C44.76,120.8,40.34,91,53.49,70c11.32-18.1,28.22-29.09,64.68-36.27,39.62-7.81,71-1.83,85.29,14.17C215.89,61.76,215.69,82.8,212.54,93.57Z" style="fill:#fff"></path><path d="M143.21,154.85a1,1,0,0,1-.49-.13l-19.15-11.58c-4.35.18-39.11,1-56.31-8.66a42.68,42.68,0,0,1-20.57-27,49.11,49.11,0,0,1,6-38C64.92,49.9,83.23,39.61,118,32.76c39-7.68,71.2-2.27,86.18,14.47,12.69,14.17,12.5,35.63,9.29,46.6h0c-7.17,24.47-28,38-71.8,46.6l2.49,13.3a.94.94,0,0,1-.39,1A.89.89,0,0,1,143.21,154.85Zm-19.32-13.63a.87.87,0,0,1,.44.14L141.88,152l-2.27-12.14a1,1,0,0,1,.75-1.11c54-10.42,66.15-28,71.26-45.44h0c3.1-10.57,3.29-31.21-8.87-44.8-14.54-16.23-46.09-21.42-84.4-13.87-34.17,6.73-52.13,16.78-64,35.84A47.23,47.23,0,0,0,48.53,107a40.85,40.85,0,0,0,19.66,25.79c17.77,9.94,55.19,8.44,55.54,8.41Zm88.65-47.65h0Z" style="fill:#455a64"></path></g></g></g><g id="freepik--Sparkles--inject-16"><polygon points="190.13 60.09 214.2 34.48 233.16 40.53 190.13 60.09" style="fill:#B38D22"></polygon><polygon points="187.66 55.91 203.89 33.39 191.98 34.66 187.66 55.91" style="fill:#B38D22"></polygon><polygon points="193.75 62.5 226.78 56.59 222.46 66.68 193.75 62.5" style="fill:#B38D22"></polygon><polygon points="70.72 116.85 46.66 142.46 27.69 136.41 70.72 116.85" style="fill:#B38D22"></polygon><polygon points="73.2 121.03 56.97 143.56 68.87 142.29 73.2 121.03" style="fill:#B38D22"></polygon><polygon points="67.11 114.45 34.08 120.35 38.4 110.27 67.11 114.45" style="fill:#B38D22"></polygon><g id="freepik--sparkles--inject-16"><path d="M195.14,88.64c-.09,0-.16-.09-.17-.21a3.35,3.35,0,0,0-3.14-3.14c-.12,0-.21-.08-.21-.17a.19.19,0,0,1,.21-.17A3.37,3.37,0,0,0,195,81.8c0-.11.08-.21.17-.21s.16.1.17.21A3.38,3.38,0,0,0,198.46,85a.2.2,0,0,1,.21.17c0,.09-.1.16-.21.17a3.36,3.36,0,0,0-3.15,3.14C195.3,88.55,195.23,88.64,195.14,88.64Z" style="fill:#B38D22"></path><path d="M163.46,51.07a.21.21,0,0,1-.18-.21,3.43,3.43,0,0,0-3.21-3.22.2.2,0,0,1-.22-.17c0-.09.1-.17.22-.18a3.41,3.41,0,0,0,3.21-3.21c0-.12.09-.22.18-.22a.2.2,0,0,1,.17.22,3.44,3.44,0,0,0,3.22,3.21.21.21,0,0,1,.21.18.19.19,0,0,1-.21.17,3.45,3.45,0,0,0-3.22,3.22A.19.19,0,0,1,163.46,51.07Z" style="fill:#B38D22"></path><path d="M63.78,91.65c-.09,0-.17-.1-.18-.22a3.52,3.52,0,0,0-3.29-3.3.18.18,0,1,1,0-.35,3.52,3.52,0,0,0,3.29-3.3c0-.12.09-.22.18-.22a.2.2,0,0,1,.18.22,3.53,3.53,0,0,0,3.3,3.3.18.18,0,1,1,0,.35,3.53,3.53,0,0,0-3.3,3.3A.2.2,0,0,1,63.78,91.65Z" style="fill:#B38D22"></path><path d="M66.33,105.53c-.07,0-.12-.06-.12-.15a2.44,2.44,0,0,0-2.27-2.27.15.15,0,0,1-.16-.12c0-.07.07-.12.16-.12a2.44,2.44,0,0,0,2.27-2.27c0-.09.05-.16.12-.16a.15.15,0,0,1,.12.16,2.44,2.44,0,0,0,2.27,2.27c.09,0,.15,0,.15.12a.14.14,0,0,1-.15.12,2.43,2.43,0,0,0-2.27,2.27A.14.14,0,0,1,66.33,105.53Z" style="fill:#B38D22"></path><path d="M154.62,53.54c-.05,0-.08,0-.09-.11A1.66,1.66,0,0,0,153,51.87a.09.09,0,1,1,0-.17,1.66,1.66,0,0,0,1.56-1.56c0-.06,0-.1.09-.1a.09.09,0,0,1,.08.1,1.66,1.66,0,0,0,1.56,1.56.1.1,0,0,1,.11.09s-.05.08-.11.08a1.66,1.66,0,0,0-1.56,1.56C154.7,53.49,154.66,53.54,154.62,53.54Z" style="fill:#B38D22"></path><path d="M200.81,94.32s-.07,0-.08-.1a1.55,1.55,0,0,0-1.44-1.45c-.06,0-.1,0-.1-.07a.08.08,0,0,1,.09-.08,1.55,1.55,0,0,0,1.45-1.45s0-.1.08-.1a.1.1,0,0,1,.08.1,1.55,1.55,0,0,0,1.45,1.45.08.08,0,0,1,.09.08.08.08,0,0,1-.09.07,1.55,1.55,0,0,0-1.45,1.45A.1.1,0,0,1,200.81,94.32Z" style="fill:#B38D22"></path><path d="M55.09,98.46s-.06,0-.07-.08a1.29,1.29,0,0,0-1.21-1.21s-.08,0-.08-.07,0-.06.08-.07A1.29,1.29,0,0,0,55,95.82s0-.08.07-.08.06,0,.07.08A1.29,1.29,0,0,0,56.37,97s.08,0,.08.07,0,.06-.08.07a1.29,1.29,0,0,0-1.21,1.21S55.13,98.46,55.09,98.46Z" style="fill:#B38D22"></path></g></g><g id="freepik--Text--inject-16"><path d="M75.15,76.87H86.73a.68.68,0,0,0,.66-.66V73.62a.65.65,0,0,0-.2-.47.62.62,0,0,0-.46-.19H79V70.22h7a.62.62,0,0,0,.46-.19.65.65,0,0,0,.2-.47V67a.68.68,0,0,0-.66-.66H79V63.67h7.52a.65.65,0,0,0,.66-.66V60.42A.62.62,0,0,0,87,60a.65.65,0,0,0-.47-.2H75.15a.65.65,0,0,0-.47.2.62.62,0,0,0-.19.46V76.21a.62.62,0,0,0,.19.46A.65.65,0,0,0,75.15,76.87ZM106.71,73a6.21,6.21,0,0,0,1.5,2.12,7.24,7.24,0,0,0,2.36,1.43,8.8,8.8,0,0,0,3.14.52,9.34,9.34,0,0,0,3-.47,8.1,8.1,0,0,0,2.4-1.29,5.87,5.87,0,0,0,1.62-1.9,5.23,5.23,0,0,0,.61-2.35.55.55,0,0,0-.54-.54h-3.2a.76.76,0,0,0-.56.16,1.47,1.47,0,0,0-.27.55,4.81,4.81,0,0,1-.28.64,2.19,2.19,0,0,1-.53.62,2.92,2.92,0,0,1-.88.48,4.07,4.07,0,0,1-1.37.19,3.55,3.55,0,0,1-1.39-.23,2.57,2.57,0,0,1-.93-.62,2.53,2.53,0,0,1-.54-.91,5.34,5.34,0,0,1-.22-1.07c0-.21,0-.51,0-.89s0-.78,0-1.18,0-.78,0-1.16,0-.67,0-.88a5.34,5.34,0,0,1,.22-1.07,2.53,2.53,0,0,1,.54-.91,2.57,2.57,0,0,1,.93-.62,3.55,3.55,0,0,1,1.39-.23,4.07,4.07,0,0,1,1.37.19,2.92,2.92,0,0,1,.88.48,2.19,2.19,0,0,1,.53.62,4.81,4.81,0,0,1,.28.64,1.47,1.47,0,0,0,.27.55.76.76,0,0,0,.56.16h3.2a.55.55,0,0,0,.54-.54,5.23,5.23,0,0,0-.61-2.35,5.87,5.87,0,0,0-1.62-1.9,8.1,8.1,0,0,0-2.4-1.29,9.34,9.34,0,0,0-3-.47,8.89,8.89,0,0,0-3.15.52,7,7,0,0,0-2.36,1.43,6.49,6.49,0,0,0-1.5,2.12,6.7,6.7,0,0,0-.59,2.55c0,.7,0,1.43,0,2.2s0,1.48,0,2.15A7.32,7.32,0,0,0,106.71,73Zm24.53-9.37h4.3V76.21a.62.62,0,0,0,.19.46.65.65,0,0,0,.47.2h3.2a.68.68,0,0,0,.66-.66V63.67h4.3a.66.66,0,0,0,.47-.19A.64.64,0,0,0,145,63V60.42a.62.62,0,0,0-.19-.46.67.67,0,0,0-.47-.2H131.24a.65.65,0,0,0-.47.2.62.62,0,0,0-.19.46V63a.65.65,0,0,0,.66.66ZM172.92,73a6.21,6.21,0,0,0,1.5,2.12,7.34,7.34,0,0,0,2.36,1.43,8.8,8.8,0,0,0,3.14.52,9.34,9.34,0,0,0,3-.46,7.18,7.18,0,0,0,2.4-1.33,6.15,6.15,0,0,0,1.62-2.12,6.51,6.51,0,0,0,.58-2.81V67.26a.62.62,0,0,0-.19-.46.65.65,0,0,0-.47-.2H181a.68.68,0,0,0-.66.66v2.59a.65.65,0,0,0,.2.47.63.63,0,0,0,.46.2H183a2.92,2.92,0,0,1-.24,1.24,2.18,2.18,0,0,1-.66.83,2.79,2.79,0,0,1-1,.47,5.06,5.06,0,0,1-1.2.14,3.63,3.63,0,0,1-1.38-.23,2.49,2.49,0,0,1-.93-.62,2.66,2.66,0,0,1-.53-.91,4.26,4.26,0,0,1-.24-1.07c0-.21,0-.51-.05-.89s0-.78,0-1.18,0-.78,0-1.16a8.26,8.26,0,0,1,.06-.88,5.38,5.38,0,0,1,.25-1.07,2.49,2.49,0,0,1,.52-.91,2.45,2.45,0,0,1,.92-.62,3.55,3.55,0,0,1,1.39-.23,3.5,3.5,0,0,1,1.79.36,3.76,3.76,0,0,1,.93.81l.4.44a.74.74,0,0,0,.57.22h3.25a.57.57,0,0,0,.4-.16.42.42,0,0,0,.14-.38,4,4,0,0,0-.58-1.74,6.07,6.07,0,0,0-1.5-1.69A7.89,7.89,0,0,0,183,60a8.77,8.77,0,0,0-3.08-.5,8.89,8.89,0,0,0-3.15.52,7.13,7.13,0,0,0-2.36,1.43,6.49,6.49,0,0,0-1.5,2.12,6.89,6.89,0,0,0-.59,2.55c0,.7,0,1.43,0,2.2s0,1.48,0,2.15A7.32,7.32,0,0,0,172.92,73Zm-25,3.83h3.2a.65.65,0,0,0,.47-.2.62.62,0,0,0,.19-.46V60.42a.62.62,0,0,0-.19-.46.65.65,0,0,0-.47-.2h-3.2a.68.68,0,0,0-.66.66V76.21a.68.68,0,0,0,.66.66Zm7.94,0H159a.68.68,0,0,0,.66-.66V68l5.59,8.36a1.92,1.92,0,0,0,.33.34,1,1,0,0,0,.67.22h2.55a.68.68,0,0,0,.66-.66V60.42a.68.68,0,0,0-.66-.66h-3.2a.65.65,0,0,0-.47.2.62.62,0,0,0-.19.46v8.26l-5.6-8.36A1.92,1.92,0,0,0,159,60a1,1,0,0,0-.67-.22h-2.55a.65.65,0,0,0-.46.2.63.63,0,0,0-.2.46V76.21a.63.63,0,0,0,.2.46A.65.65,0,0,0,155.82,76.87Zm-50.43-.16a.51.51,0,0,0,.16-.38s0-.07,0-.11a1.16,1.16,0,0,0-.06-.16l-5.6-7.79,5.42-7.7a.63.63,0,0,0,.08-.27.55.55,0,0,0-.16-.38.51.51,0,0,0-.38-.16H101.1a.89.89,0,0,0-.71.25l-.32.36L97.21,64.5l-2.95-4.13L93.94,60a.89.89,0,0,0-.71-.25H89.54a.51.51,0,0,0-.38.16.55.55,0,0,0-.16.38.63.63,0,0,0,.08.27l5.4,7.6-5.65,7.89a1.16,1.16,0,0,0-.06.16.45.45,0,0,0,0,.11.51.51,0,0,0,.16.38.49.49,0,0,0,.38.16H93a1,1,0,0,0,.67-.17,2.44,2.44,0,0,0,.33-.39l3.13-4.4,3.15,4.4a3.09,3.09,0,0,0,.33.39,1.05,1.05,0,0,0,.68.17H105A.51.51,0,0,0,105.39,76.71Zm22.33-16.95h-3.2a.65.65,0,0,0-.47.2.62.62,0,0,0-.19.46V76.21a.62.62,0,0,0,.19.46.65.65,0,0,0,.47.2h3.2a.68.68,0,0,0,.66-.66V60.42a.68.68,0,0,0-.66-.66ZM97.47,87h-5.4A1.13,1.13,0,0,0,91,88.07V102L81.51,87.9a2.79,2.79,0,0,0-.56-.58A1.69,1.69,0,0,0,79.82,87H75.53a1.13,1.13,0,0,0-1.11,1.12v26.64a1.13,1.13,0,0,0,1.11,1.11h5.4a1.13,1.13,0,0,0,1.12-1.11V100.77l9.44,14.1a3.09,3.09,0,0,0,.56.58,1.67,1.67,0,0,0,1.13.37h4.29a1.13,1.13,0,0,0,1.12-1.11V88.07A1.13,1.13,0,0,0,97.47,87Zm62.78,0h-5.41a1.36,1.36,0,0,0-.78.25,1.24,1.24,0,0,0-.49.87L150.93,102l-2.44-7.47a3,3,0,0,0-.37-.74,1.14,1.14,0,0,0-1-.46h-3.88a1.14,1.14,0,0,0-1,.46,3,3,0,0,0-.37.74L139.38,102l-2.64-13.94a1.29,1.29,0,0,0-.5-.87,1.36,1.36,0,0,0-.78-.25h-5.4a.92.92,0,0,0-.91.91,1.6,1.6,0,0,0,0,.33l5.32,26.07a1.76,1.76,0,0,0,.66,1.07,2.08,2.08,0,0,0,1.4.49H140a1.86,1.86,0,0,0,1.34-.49,2.89,2.89,0,0,0,.72-1.07l3.09-9.33,3.09,9.33a2.81,2.81,0,0,0,.73,1.07,1.84,1.84,0,0,0,1.34.49h3.42a2.06,2.06,0,0,0,1.4-.49,1.72,1.72,0,0,0,.66-1.07l5.32-26.07a1.6,1.6,0,0,0,0-.33.9.9,0,0,0-.26-.64A.89.89,0,0,0,160.25,87ZM188,103.88a6.68,6.68,0,0,0-1.7-2.47,9.14,9.14,0,0,0-2.82-1.75,21,21,0,0,0-4-1.16c-1.51-.3-2.78-.56-3.8-.78A18.71,18.71,0,0,1,173.3,97a3.57,3.57,0,0,1-1.32-.77,1.44,1.44,0,0,1-.39-1,1.57,1.57,0,0,1,.35-1,2.34,2.34,0,0,1,.91-.64,5.43,5.43,0,0,1,1.28-.33,10.4,10.4,0,0,1,1.5-.1,6,6,0,0,1,1.82.23,5.47,5.47,0,0,1,1.23.53,4.13,4.13,0,0,1,.77.6c.17.19.31.33.39.41a3,3,0,0,0,.72.5,2.19,2.19,0,0,0,.93.16h5.4a.83.83,0,0,0,.6-.27.85.85,0,0,0,.27-.64,5.61,5.61,0,0,0-.95-2.76,10.08,10.08,0,0,0-2.52-2.64,13.94,13.94,0,0,0-3.81-2,14.73,14.73,0,0,0-4.85-.76,15.35,15.35,0,0,0-4.85.72,11.78,11.78,0,0,0-3.69,2,8.75,8.75,0,0,0-2.33,2.85,7.53,7.53,0,0,0-.8,3.38,8,8,0,0,0,2,5.67,11.4,11.4,0,0,0,6.2,3c1.52.33,2.83.61,3.94.83a23,23,0,0,1,2.75.68,5.19,5.19,0,0,1,1.6.76,1.25,1.25,0,0,1,.54,1,1.77,1.77,0,0,1-1.46,1.71,11.92,11.92,0,0,1-3.65.48,6.63,6.63,0,0,1-2.09-.29,5.53,5.53,0,0,1-1.4-.68,5,5,0,0,1-.88-.77l-.5-.53a2.81,2.81,0,0,0-.66-.44,2.44,2.44,0,0,0-.91-.14H164a.83.83,0,0,0-.6.27.87.87,0,0,0-.27.64,6.18,6.18,0,0,0,1,3.09,10,10,0,0,0,2.62,2.74,13.69,13.69,0,0,0,4,2,16.53,16.53,0,0,0,5.12.75,19.88,19.88,0,0,0,5.09-.62,13,13,0,0,0,4-1.8,8.59,8.59,0,0,0,2.66-2.82,7.32,7.32,0,0,0,1-3.76A9.24,9.24,0,0,0,188,103.88Zm-63,5.34H112V104.6h11.8a1.13,1.13,0,0,0,1.11-1.11V99.12A1.13,1.13,0,0,0,123.79,98H112V93.55h12.7a1.13,1.13,0,0,0,1.12-1.11V88.07A1.13,1.13,0,0,0,124.69,87H105.48a1.13,1.13,0,0,0-1.12,1.12v26.64a1.13,1.13,0,0,0,1.12,1.11H125a1.13,1.13,0,0,0,1.11-1.11v-4.37a1.13,1.13,0,0,0-1.11-1.12Z" style="fill:#263238"></path></g><g id="freepik--Symbols--inject-16"><g id="freepik--Exclamation--inject-16"><path d="M340.58,76.16a1.11,1.11,0,0,1,.82-.41,1.14,1.14,0,0,1,.87.27l4.29,3.65a1.15,1.15,0,0,1,.42.81,1.2,1.2,0,0,1-.28.88l-2.92,3.44a1.13,1.13,0,0,1-.82.41,1.15,1.15,0,0,1-.88-.27l-4.29-3.65a1.15,1.15,0,0,1-.41-.82,1.11,1.11,0,0,1,.28-.87Zm15.75-18.54a1.11,1.11,0,0,1,.82-.41,1.16,1.16,0,0,1,.88.27l4.28,3.65a1.16,1.16,0,0,1,.42.82,1.14,1.14,0,0,1-.28.87L350,77.49a1.15,1.15,0,0,1-.82.41,1.13,1.13,0,0,1-.88-.28L344,74a1.21,1.21,0,0,1-.14-1.7Z" style="fill:#B38D22"></path><path d="M328,63.07a1.21,1.21,0,0,1,1.38-1l5.55.92a1.16,1.16,0,0,1,.78.49,1.1,1.1,0,0,1,.21.89l-.73,4.45a1.17,1.17,0,0,1-.5.78,1.1,1.1,0,0,1-.89.21l-5.55-.92a1.14,1.14,0,0,1-.78-.49,1.18,1.18,0,0,1-.21-.89Zm4-24a1.19,1.19,0,0,1,.5-.78,1.1,1.1,0,0,1,.89-.21l5.55.92a1.14,1.14,0,0,1,.78.49,1.1,1.1,0,0,1,.21.89l-3.14,19a1.15,1.15,0,0,1-.5.78,1.1,1.1,0,0,1-.89.21l-5.55-.92a1.14,1.14,0,0,1-.78-.49,1.18,1.18,0,0,1-.21-.89Z" style="fill:#B38D22"></path><g style="opacity:0.30000000000000004"><path d="M328,63.07a1.21,1.21,0,0,1,1.38-1l5.55.92a1.16,1.16,0,0,1,.78.49,1.1,1.1,0,0,1,.21.89l-.73,4.45a1.17,1.17,0,0,1-.5.78,1.1,1.1,0,0,1-.89.21l-5.55-.92a1.14,1.14,0,0,1-.78-.49,1.18,1.18,0,0,1-.21-.89Zm4-24a1.19,1.19,0,0,1,.5-.78,1.1,1.1,0,0,1,.89-.21l5.55.92a1.14,1.14,0,0,1,.78.49,1.1,1.1,0,0,1,.21.89l-3.14,19a1.15,1.15,0,0,1-.5.78,1.1,1.1,0,0,1-.89.21l-5.55-.92a1.14,1.14,0,0,1-.78-.49,1.18,1.18,0,0,1-.21-.89Z" style="fill:#fff"></path></g></g></g><g id="freepik--Icons--inject-16"><g id="freepik--Like--inject-16"><path d="M443.88,178.62a.56.56,0,0,1-.56-.43l-4-18.12a.53.53,0,0,1,.41-.64l6-1.32a.54.54,0,0,1,.65.42l4,18.12a.55.55,0,0,1-.08.41.51.51,0,0,1-.34.23l-6,1.32Zm-3.34-18.25,3.73,17.06,4.94-1.08-3.74-17.06Zm10.86,14.4a.55.55,0,0,1-.56-.42l-3.4-15.57a.5.5,0,0,1,0-.32c1-2.56,2.58-6.6,2.69-7.28a21.58,21.58,0,0,0-.94-4.36c-.13-.47-.24-.83-.27-1s-.07-.79.87-1.2a4.14,4.14,0,0,1,5,1.41,11.23,11.23,0,0,1,2.22,6.71l7.65-1.67a3.17,3.17,0,0,1,3.7,2.48,3.36,3.36,0,0,1-.4,2.51,3,3,0,0,1,1.76,2.19,3.29,3.29,0,0,1-1.17,3.21,4.48,4.48,0,0,1,.67,1.61,3.66,3.66,0,0,1-1.56,3.32,5.28,5.28,0,0,1,.52,1.44,3.46,3.46,0,0,1-2.9,3.93l-13.77,3Zm-2.87-16.06,3.26,14.87,13.24-2.9a2.42,2.42,0,0,0,2.07-2.63,4.63,4.63,0,0,0-.68-1.61.54.54,0,0,1-.07-.51.56.56,0,0,1,.39-.34,2.43,2.43,0,0,0,1.4-2.29,2.72,2.72,0,0,0-.78-1.55.54.54,0,0,1-.2-.5.55.55,0,0,1,.31-.43,2.14,2.14,0,0,0,1.17-2.35,1.83,1.83,0,0,0-1.66-1.55.53.53,0,0,1-.36-.93,2.35,2.35,0,0,0,.66-2.22,2.08,2.08,0,0,0-2.4-1.65l-8.33,1.82a.55.55,0,0,1-.46-.11.57.57,0,0,1-.2-.44,10.26,10.26,0,0,0-2-6.75,2.9,2.9,0,0,0-2.39-1.25,2.66,2.66,0,0,0-1.45.33l.22.81c.59,2.09,1.11,4,1,4.83S449,157.57,448.53,158.71Z" style="fill:#e0e0e0"></path></g><g id="freepik--like--inject-16"><path d="M60.89,414.44l-7.12-1.56a.62.62,0,0,1-.41-.28.64.64,0,0,1-.08-.49L58,390.6a.63.63,0,0,1,.77-.49l7.12,1.56a.62.62,0,0,1,.41.28.64.64,0,0,1,.08.49L61.66,414a.65.65,0,0,1-.66.51Zm-1.78-22.93-4.43,20.25L60.54,413,65,392.79ZM52,409.88,35.61,406.3a4.12,4.12,0,0,1-3.44-4.67,6.8,6.8,0,0,1,.62-1.71A4.3,4.3,0,0,1,30.94,396a5.42,5.42,0,0,1,.79-1.92,3.9,3.9,0,0,1-1.39-3.81,3.52,3.52,0,0,1,2.09-2.6,4,4,0,0,1-.47-3,3.77,3.77,0,0,1,4.39-2.95l9.08,2a13.41,13.41,0,0,1,2.65-8A4.92,4.92,0,0,1,54,374.07c1.12.49,1.1,1.16,1,1.43s-.17.64-.32,1.2c-.37,1.33-1.25,4.44-1.12,5.18s2,5.6,3.19,8.64a.62.62,0,0,1,0,.38l-4.05,18.48a.64.64,0,0,1-.66.51Zm.32-27.79c-.16-.95.46-3.26,1.16-5.74l.26-1A3.11,3.11,0,0,0,52,375a3.47,3.47,0,0,0-2.84,1.48,12.22,12.22,0,0,0-2.4,8,.68.68,0,0,1-.23.52.66.66,0,0,1-.56.13L36.07,383a2.47,2.47,0,0,0-2.85,2,2.79,2.79,0,0,0,.78,2.63.64.64,0,0,1,.16.7.61.61,0,0,1-.58.41,2.16,2.16,0,0,0-2,1.84,2.53,2.53,0,0,0,1.38,2.8.64.64,0,0,1,.13,1.09,3.39,3.39,0,0,0-.92,1.84A2.91,2.91,0,0,0,33.85,399a.64.64,0,0,1,.47.4.67.67,0,0,1-.08.61,5.49,5.49,0,0,0-.81,1.91A2.86,2.86,0,0,0,35.89,405l15.72,3.45,3.87-17.67C54.94,389.46,52.47,383.22,52.28,382.09Z" style="fill:#e0e0e0"></path></g><g id="freepik--like--inject-16"><path d="M428.5,282.21s-1.3-7.3-1.26-8.37,2.18-4.88,2.51-5.6-3-2.53-5.25-.39a11.64,11.64,0,0,0-3.77,7l-8.36-3.74a2.83,2.83,0,0,0-3.66,1.51,3.11,3.11,0,0,0,.27,3.05,2.55,2.55,0,0,0-2.72,1.6,2.87,2.87,0,0,0,.9,3.44,3.44,3.44,0,0,0-1.43,1.75,3.15,3.15,0,0,0,1.26,3.49,5.5,5.5,0,0,0-1.21,1.74,3.16,3.16,0,0,0,1.9,4l13.83,6.18Z" style="fill:#e0e0e0"></path><path d="M422.56,300.85l6,2.69,8.12-18.2-6-2.69Zm3.09-1.49a1.18,1.18,0,1,1,2.36,0,1.18,1.18,0,1,1-2.36,0Z" style="fill:#e0e0e0"></path></g><g id="freepik--like--inject-16"><path d="M45.48,181s1.3-7.3,1.25-8.37-2.18-4.88-2.5-5.6,3-2.53,5.25-.39a11.7,11.7,0,0,1,3.77,7l8.36-3.73a2.81,2.81,0,0,1,3.66,1.51,3.1,3.1,0,0,1-.27,3,2.55,2.55,0,0,1,2.72,1.61,2.86,2.86,0,0,1-.9,3.43,3.56,3.56,0,0,1,1.43,1.75A3.16,3.16,0,0,1,67,184.76a5.69,5.69,0,0,1,1.21,1.74,3.18,3.18,0,0,1-1.9,4l-13.83,6.18Z" style="fill:#e0e0e0"></path><path d="M43.29,181.47l-6,2.69,8.12,18.2,6-2.69Zm3.86,17.89a1.18,1.18,0,1,1,1.18-1.18A1.18,1.18,0,0,1,47.15,199.36Z" style="fill:#e0e0e0"></path></g></g></svg>